# AST/ASF file generated using VICON BodyLanguage
# -----------------------------------------------
:version 1.10
:name VICON
:units
  mass 1.0
  length 0.45
  angle deg
:documentation
   .ast/.asf automatically generated from VICON data using
   VICON BodyBuilder and BodyLanguage model FoxedUp or BRILLIANT.MOD
:root
   order TX TY TZ RX RY RZ
   axis XYZ
   position 0 0 0  
   orientation 0 0 0 
:bonedata
  begin
     id 1 
     name lhipjoint
     direction 0.734343 -0.627749 0.258209 
     length 2.5437 
     axis 0 0 0  XYZ
  end
  begin
     id 2 
     name lfemur
     direction 0.34202 -0.939693 0  
     length 6.7391  
     axis 0 0 20  XYZ
    dof rx ry rz
    limits (-160.0 20.0)
           (-70.0 70.0)
           (-60.0 70.0)
  end
  begin
     id 3 
     name ltibia
     direction 0.34202 -0.939693 0   
     length 7.21536   
     axis 0 0 20   XYZ
    dof rx
    limits (-10.0 170.0)
  end
  begin
     id 4 
     name lfoot
     direction 0.0489572 -0.134509 0.989702   
     length 1.61313   
     axis -90 7.62852e-016 20   XYZ
    dof rx rz
    limits (-45.0 90.0)
           (-70.0 20.0)
  end
  begin
     id 5 
     name ltoes
     direction 1.53451e-011 -4.21692e-011 1   
     length 0.823104   
     axis -90 7.62852e-016 20   XYZ
    dof rx
    limits (-90.0 20.0)
  end
  begin
     id 6 
     name rhipjoint
     direction -0.746398 -0.615468 0.253157   
     length 2.59446  
     axis 0 0 0  XYZ 
  end
  begin
     id 7 
     name rfemur
     direction -0.34202 -0.939693 0   
     length 6.7075   
     axis 0 0 -20   XYZ
    dof rx ry rz
    limits (-160.0 20.0)
           (-70.0 70.0)
           (-70.0 60.0)
  end
  begin
     id 8 
     name rtibia
     direction -0.34202 -0.939693 0   
     length 7.27262   
     axis 0 0 -20   XYZ
    dof rx
    limits (-10.0 170.0)
 end
 begin
     id 9 
     name rfoot
     direction -0.0455203 -0.125066 0.991104   
     length 1.91095  
     axis -90 -7.62852e-016 -20   XYZ
    dof rx rz
    limits (-45.0 90.0)
           (-20.0 70.0)
  end
  begin
     id 10 
     name rtoes
     direction -1.53601e-011 -4.21913e-011 1   
     length 0.969037   
     axis -90 -7.62852e-016 -20   XYZ
    dof rx
    limits (-90.0 20.0)
  end
  begin
     id 11 
     name lowerback
     direction 0.0181546 0.999122 -0.0377542   
     length 1.99916   
     axis 0 0 0   XYZ
    dof rx ry rz
    limits (-20.0 45.0)
           (-30.0 30.0)
           (-30.0 30.0)
  end
  begin
     id 12 
     name upperback
     direction 0.0203486 0.99589 0.0882534   
     length 1.951   
     axis 0 0 0   XYZ
    dof rx ry rz
    limits (-20.0 45.0)
           (-30.0 30.0)
           (-30.0 30.0)
  end
  begin
     id 13 
     name thorax
     direction 0.0131685 0.994241 0.106355   
     length 1.97461   
     axis 0 0 0   XYZ
    dof rx ry rz
    limits (-20.0 45.0)
           (-30.0 30.0)
           (-30.0 30.0)
  end
  begin
     id 14 
     name lowerneck
     direction -0.0281395 0.999325 0.023617   
     length 1.7959   
     axis 0 0 0   XYZ
    dof rx ry rz
    limits (-20.0 45.0)
           (-30.0 30.0)
           (-30.0 30.0)
  end
  begin
     id 15 
     name upperneck
     direction 0.0288721 0.991984 -0.123019   
     length 1.79917   
     axis 0 0 0   XYZ
    dof rx ry rz
    limits (-20.0 45.0)
           (-30.0 30.0)
           (-30.0 30.0)
  end
  begin
     id 16
     name head
     direction 0.0133797 0.998944 -0.0439492  
     length 1.80902  
     axis 0 0 0   XYZ
    dof rx ry rz
    limits (-20.0 45.0)
           (-30.0 30.0)
           (-30.0 30.0)
  end
  begin
     id 17 
     name lclavicle
     direction 0.919195 0.377107 0.113449  
     length 3.17815  
     axis 0 0 0   XYZ
    dof ry rz
    limits (-20.0 10.0)
           (0.0 20.0)
  end
  begin
     id 18 
     name lhumerus
     direction 1 -4.48959e-011 2.13129e-027   
     length 4.84137   
     axis 180 -30 -90   XYZ
    dof rx ry rz
    limits (-60.0 90.0)
           (-90.0 90.0)
           (-90.0 90.0)
  end
  begin
     id 19
     name lradius
     direction 1 -4.48957e-011 -6.30627e-028   
     length 3.2452   
     axis 180 -30 -90   XYZ
    dof rx
    limits (-10.0 170.0)
  end
  begin
     id 20
     name lwrist
     direction 1 -4.4901e-011 9.13299e-027   
     length 1.6226   
     axis -6.84618e-015 90 90   XYZ
    dof ry
    limits (-180.0 0.0)
 end
  begin
     id 21 
     name lhand
     direction 1 -4.48816e-011 1.82293e-026   
     length 0.521221   
     axis -1.16502e-014 90 90   XYZ
    dof rx rz
    limits (-90.0 90.0)
           (-45.0 45.0)
  end
  begin
     id 22 
     name lfingers
     direction 1 -4.49108e-011 3.65687e-026   
     length 0.420221   
     axis -2.33008e-014 90 90   XYZ
    dof rx
    limits (0.0 90.0)
  end
  begin
     id 23
     name lthumb
     direction 0.707107 -6.34943e-011 0.707107   
     length 0.603356   
     axis -90 45 5.69224e-014   XYZ
    dof rx rz
    limits (-45.0 45.0)
           (-45.0 45.0)
  end
  begin
     id 24 
     name rclavicle
     direction -0.90847 0.38596 0.160368   
     length 3.12973  
     axis 0 0 0   XYZ 
    dof ry rz
    limits (-10.0 20.0)
           (-20.0 0.0)
  end
  begin
     id 25 
     name rhumerus
     direction -1 -4.48974e-011 4.47268e-028  
     length 4.72284   
     axis 180 30 90   XYZ
    dof rx ry rz
    limits (-90.0 60.0)
           (-90.0 90.0)
           (-90.0 90.0)
  end
  begin
     id 26 
     name rradius
     direction -1 -4.48969e-011 3.43203e-027   
     length 3.23459   
     axis 180 30 90   XYZ
    dof rx
    limits (-10.0 170.0)
  end
  begin
     id 27 
     name rwrist
     direction -1 -4.48969e-011 9.12911e-027   
     length 1.6173   
     axis -6.84618e-015 -90 -90   XYZ
    dof ry
    limits (-180.0 0.0)
  end
  begin
     id 28
     name rhand
     direction -1 -4.49194e-011 1.83006e-026   
     length 0.307416   
     axis -1.16502e-014 -90 -90   XYZ
    dof rx rz
    limits (-90.0 90.0)
           (-45.0 45.0)
  end
  begin
     id 29
     name rfingers
     direction -1 -4.48423e-011 3.63103e-026   
     length 0.247847   
     axis -2.33008e-014 -90 -90   XYZ
    dof rx
    limits (0.0 90.0)
  end
  begin
     id 30
     name rthumb
     direction -0.707107 -6.34802e-011 0.707107   
     length 0.35586   
     axis -90 -45 -5.69224e-014   XYZ
    dof rx rz
    limits (-45.0 45.0)
           (-45.0 45.0)
  end
:hierarchy
  begin
    root lhipjoint rhipjoint lowerback
    lhipjoint lfemur
    lfemur ltibia
    ltibia lfoot
    lfoot ltoes
    rhipjoint rfemur
    rfemur rtibia
    rtibia rfoot
    rfoot rtoes
    lowerback upperback
    upperback thorax
    thorax lowerneck lclavicle rclavicle
    lowerneck upperneck
    upperneck head
    lclavicle lhumerus
    lhumerus lradius
    lradius lwrist
    lwrist lhand lthumb
    lhand lfingers
    rclavicle rhumerus
    rhumerus rradius
    rradius rwrist
    rwrist rhand rthumb
    rhand rfingers
  end

#!OML:ASF H:\Terrain\Patient Classification 1\Animal1\Tuesday\Animal1.ASF
:FULLY-SPECIFIED
:DEGREES
34
root 20.166 14.5343 -11.3464 9.9798 -19.2858 3.78421
lowerback 16.3732 -1.35881 0.381543
upperback -7.96846 -2.02548 -1.36972
thorax -18.6717 -1.08133 -1.16791
lowerneck -4.28322 2.241 -5.59909
upperneck 21.6729 1.96987 8.30038
head 7.13192 1.15856 3.80133
rclavicle 4.63444e-014 -1.881e-014
rhumerus -3.48998 -23.8244 15.9703
rradius 38.6478
rwrist 5.52922
rhand 71.4801 -16.0698
rfingers 7.12502
rthumb 73.0047 56.4757
lclavicle 4.63444e-014 -1.881e-014
lhumerus -22.5368 23.9465 -3.45005
lradius 59.9916
lwrist -50.7707
lhand 57.1035 72.4839
lfingers 7.12502
lthumb 73.7282 49.826
rfemur -81.4006 -15.0517 11.2723
rtibia 88.4352
rfoot 45.9736 12.6708
rtoes 6.27662
lfemur -39.1701 -11.8095 -28.5222
ltibia 65.5022
lfoot -29.1073 22.3741
ltoes -7.71936
35
root 20.1965 14.5238 -11.3466 10.26 -19.6361 3.81707
lowerback 16.5607 -1.33704 0.429813
upperback -8.0394 -1.98442 -1.35567
thorax -18.888 -1.06841 -1.18886
lowerneck -4.50838 2.22684 -5.70765
upperneck 21.7377 1.94667 8.41505
head 7.19143 1.15219 3.86266
rclavicle -3.44344e-014 -1.17283e-014
rhumerus -3.66433 -24.0066 16.1412
rradius 38.6779
rwrist 5.35429
rhand 21.8778 -84.4422
rfingers 7.12502
rthumb 46.2802 107.419
lclavicle -3.44344e-014 -1.17283e-014
lhumerus -22.5903 24.1926 -3.94944
lradius 59.885
lwrist -50.975
lhand 57.5399 72.3946
lfingers 7.12502
lthumb 73.8891 48.3398
rfemur -82.0233 -15.4148 11.689
rtibia 88.5642
rfoot 45.9677 12.7279
rtoes 7.32665
lfemur -39.6793 -11.6147 -28.6543
ltibia 65.7617
lfoot -29.2651 22.0186
ltoes -5.9899
36
root 20.2259 14.4976 -11.356 10.6226 -20.058 3.6929
lowerback 16.83 -1.28163 0.60661
upperback -8.13978 -1.85893 -1.30602
thorax -19.1985 -1.03165 -1.26755
lowerneck -4.41219 2.17289 -5.6916
upperneck 21.4825 1.90288 8.29026
head 7.09739 1.12034 3.80611
rclavicle -5.13672e-014 -1.46604e-014
rhumerus -3.92027 -24.1897 16.4611
rradius 38.7297
rwrist 5.00222
rhand 59.075 -60.1809
rfingers 7.12502
rthumb 74.3737 -30.9993
lclavicle -5.13672e-014 -1.46604e-014
lhumerus -22.6374 24.1679 -4.46382
lradius 59.781
lwrist -51.0171
lhand 57.6813 72.2689
lfingers 7.12502
lthumb 73.9392 47.7553
rfemur -82.7294 -15.6677 12.3623
rtibia 88.6318
rfoot 45.5499 12.7921
rtoes 8.66608
lfemur -40.3607 -11.3016 -28.607
ltibia 66.0893
lfoot -29.0967 22.1859
ltoes -6.61921
37
root 20.2544 14.4757 -11.3591 10.8728 -20.4041 3.62434
lowerback 17.1055 -1.25286 0.798458
upperback -8.18974 -1.76874 -1.28829
thorax -19.4515 -1.01569 -1.38166
lowerneck -4.07772 2.13242 -5.69797
upperneck 20.984 1.88584 8.14242
head 6.88052 1.09405 3.73645
rclavicle 4.57779e-014 7.70291e-015
rhumerus -4.24314 -24.2322 16.8574
rradius 38.855
rwrist 4.97529
rhand 79.4108 -22.9498
rfingers 7.12502
rthumb 68.2071 67.7778
lclavicle 4.57779e-014 7.70291e-015
lhumerus -22.7354 23.8279 -5.05183
lradius 59.817
lwrist -50.7085
lhand 57.7648 72.2761
lfingers 7.12502
lthumb 73.9682 47.4905
rfemur -83.2159 -15.878 12.8031
rtibia 88.7086
rfoot 45.1474 12.6984
rtoes 8.84118
lfemur -40.8627 -11.1284 -28.6317
ltibia 66.3801
lfoot -28.9279 22.4727
ltoes -7.3792
38
root 20.2821 14.4653 -11.3505 10.976 -20.6892 3.87815
lowerback 17.2386 -1.27842 0.692536
upperback -8.15151 -1.83965 -1.33902
thorax -19.4914 -1.03775 -1.35605
lowerneck -4.25399 2.126 -5.73441
upperneck 20.8746 1.91426 8.04372
head 6.87613 1.10016 3.71206
rclavicle -3.52222e-015 6.31141e-015
rhumerus -4.37478 -24.7285 16.9771
rradius 38.9191
rwrist 5.40358
rhand 81.487 -22.0631
rfingers 7.12502
rthumb 63.2628 68.5877
lclavicle -3.52222e-015 6.31141e-015
lhumerus -23.0089 23.7623 -5.80528
lradius 59.8725
lwrist -50.5248
lhand 58.4001 71.9543
lfingers 7.12502
lthumb 74.1768 45.0656
rfemur -83.5936 -16.1738 12.7184
rtibia 88.8578
rfoot 45.0815 12.5921
rtoes 7.46375
lfemur -41.1652 -11.1715 -29.004
ltibia 66.5859
lfoot -28.8091 22.7549
ltoes -7.39906
